<svg width="40" height="41" viewBox="0 0 40 41" fill="none" xmlns="http://www.w3.org/2000/svg">
<circle cx="20" cy="20.0161" r="20" fill="#EDFFFC"/>
<path d="M25 10.0161H15C12.2386 10.0161 10 12.2547 10 15.0161V25.0161C10 27.7775 12.2386 30.0161 15 30.0161H25C27.7614 30.0161 30 27.7775 30 25.0161V15.0161C30 12.2547 27.7614 10.0161 25 10.0161Z" stroke="#02897A" stroke-width="2" stroke-linecap="round" stroke-linejoin="round"/>
<path d="M24.0002 19.3859C24.1236 20.2182 23.9815 21.0681 23.594 21.8149C23.2065 22.5617 22.5933 23.1673 21.8418 23.5456C21.0903 23.9239 20.2386 24.0555 19.408 23.9219C18.5773 23.7882 17.81 23.396 17.215 22.8011C16.6201 22.2062 16.2279 21.4388 16.0943 20.6081C15.9606 19.7775 16.0923 18.9258 16.4705 18.1743C16.8488 17.4228 17.4544 16.8097 18.2012 16.4222C18.948 16.0347 19.7979 15.8925 20.6302 16.0159C21.4791 16.1418 22.265 16.5374 22.8719 17.1442C23.4787 17.7511 23.8743 18.537 24.0002 19.3859Z" stroke="#02897A" stroke-width="2" stroke-linecap="round" stroke-linejoin="round"/>
<path d="M25.5 14.5161H25.51" stroke="#02897A" stroke-width="2" stroke-linecap="round" stroke-linejoin="round"/>
</svg>
